<?xml version="1.0" encoding="UTF-8"?>
<!DOCTYPE svg PUBLIC "-//W3C//DTD SVG 1.1//EN" "http://www.w3.org/Graphics/SVG/1.1/DTD/svg11.dtd">
<svg xmlns="http://www.w3.org/2000/svg" version="1.1" width="480px" height="147px" style="shape-rendering:geometricPrecision; text-rendering:geometricPrecision; image-rendering:optimizeQuality; fill-rule:evenodd; clip-rule:evenodd" xmlns:xlink="http://www.w3.org/1999/xlink">
<g><path style="opacity:1" fill="#fef5f6" d="M -0.5,-0.5 C 125.167,-0.5 250.833,-0.5 376.5,-0.5C 376.943,27.423 390.276,45.923 416.5,55C 432.197,55.2144 447.864,54.8811 463.5,54C 470.628,56.9666 475.962,61.7999 479.5,68.5C 479.5,94.5 479.5,120.5 479.5,146.5C 362.833,146.5 246.167,146.5 129.5,146.5C 132.312,133.148 129.978,120.815 122.5,109.5C 122.539,108.417 122.873,107.417 123.5,106.5C 116.438,94.766 106.438,86.766 93.5,82.5C 86.1667,81.1667 78.8333,81.1667 71.5,82.5C 61.6295,87.7114 52.2962,93.7114 43.5,100.5C 39.5,101.5 35.5,102.5 31.5,103.5C 20.0647,101.455 12.0647,95.122 7.5,84.5C 6.16667,83.1667 6.16667,81.8333 7.5,80.5C 7.04311,79.7025 6.37644,79.3691 5.5,79.5C 6.26643,68.8399 6.4331,58.1733 6,47.5C 5.10899,42.7118 2.94233,38.7118 -0.5,35.5C -0.5,23.5 -0.5,11.5 -0.5,-0.5 Z"/></g>
<g><path style="opacity:1" fill="#f8e9ec" d="M 376.5,-0.5 C 410.833,-0.5 445.167,-0.5 479.5,-0.5C 479.5,22.5 479.5,45.5 479.5,68.5C 475.962,61.7999 470.628,56.9666 463.5,54C 447.864,54.8811 432.197,55.2144 416.5,55C 390.276,45.923 376.943,27.423 376.5,-0.5 Z"/></g>
<g><path style="opacity:1" fill="#f8e9ec" d="M 339.5,11.5 C 348.843,10.1179 356.676,12.7845 363,19.5C 366.389,28.4457 364.555,35.9457 357.5,42C 352.147,43.1329 347.147,42.2996 342.5,39.5C 338.813,36.6469 335.647,33.3135 333,29.5C 329.3,21.1849 331.467,15.1849 339.5,11.5 Z"/></g>
<g><path style="opacity:1" fill="#f8e9ec" d="M -0.5,35.5 C 2.94233,38.7118 5.10899,42.7118 6,47.5C 6.4331,58.1733 6.26643,68.8399 5.5,79.5C 7.99147,99.5873 19.3248,108.421 39.5,106C 48.1882,101.659 56.1882,96.3256 63.5,90C 73.5522,83.4832 84.2189,82.1499 95.5,86C 107.139,90.8062 116.139,98.6396 122.5,109.5C 129.978,120.815 132.312,133.148 129.5,146.5C 86.1667,146.5 42.8333,146.5 -0.5,146.5C -0.5,109.5 -0.5,72.5 -0.5,35.5 Z"/></g>
<g><path style="opacity:1" fill="#f8e9ec" d="M 55.5,62.5 C 57.4672,62.2606 59.3005,62.5939 61,63.5C 63.5086,69.7536 62.5086,75.4202 58,80.5C 48.8887,91.5371 37.3887,95.3704 23.5,92C 17.6967,86.0681 17.03,79.5681 21.5,72.5C 22.9814,71.5197 24.3147,70.353 25.5,69C 31.5,68.6667 37.5,68.3333 43.5,68C 47.9392,66.9443 51.9392,65.111 55.5,62.5 Z"/></g>
<g><path style="opacity:1" fill="#fef2f4" d="M 5.5,79.5 C 6.37644,79.3691 7.04311,79.7025 7.5,80.5C 6.16667,81.8333 6.16667,83.1667 7.5,84.5C 12.0647,95.122 20.0647,101.455 31.5,103.5C 35.5,102.5 39.5,101.5 43.5,100.5C 52.2962,93.7114 61.6295,87.7114 71.5,82.5C 78.8333,81.1667 86.1667,81.1667 93.5,82.5C 106.438,86.766 116.438,94.766 123.5,106.5C 122.873,107.417 122.539,108.417 122.5,109.5C 116.139,98.6396 107.139,90.8062 95.5,86C 84.2189,82.1499 73.5522,83.4832 63.5,90C 56.1882,96.3256 48.1882,101.659 39.5,106C 19.3248,108.421 7.99147,99.5873 5.5,79.5 Z"/></g>
</svg>
