<svg width="22" height="30" viewBox="0 0 22 30" fill="none" xmlns="http://www.w3.org/2000/svg">
<path d="M10.5729 0.737593C10.4684 0.785093 10.2974 0.918097 10.1929 1.0321C10.0029 1.2411 10.0029 1.4121 9.95539 10.8838L9.90789 20.5359L7.29535 17.7429C3.20078 13.3728 3.59979 13.7623 3.14378 13.7623C2.40277 13.7623 1.86126 14.5223 2.18426 15.1208C2.36477 15.4723 9.95539 23.5475 10.2879 23.7565C10.6584 23.975 11.3424 23.975 11.7129 23.7565C12.0644 23.538 19.7406 15.4628 19.9116 15.1208C20.2251 14.5223 19.6931 13.7623 18.9615 13.7623C18.5055 13.7623 18.8 13.4773 14.7435 17.7429L12.0929 20.5264L12.0454 10.9408C11.9979 1.91561 11.9884 1.3456 11.8269 1.0986C11.5704 0.699593 11.0384 0.54759 10.5729 0.737593Z" fill="black" stroke="black" stroke-width="0.5"/>
<path d="M1.40484 27.1385C0.68283 27.4995 0.70183 28.611 1.44284 28.915C1.94635 29.124 20.0536 29.124 20.5572 28.915C21.2982 28.611 21.3172 27.4995 20.5952 27.1385C20.2817 26.977 19.6261 26.9675 11 26.9675C2.37386 26.9675 1.71835 26.977 1.40484 27.1385Z" fill="black" stroke="black" stroke-width="0.5"/>
</svg>
