<svg width="26" height="26" viewBox="0 0 26 26" fill="none" xmlns="http://www.w3.org/2000/svg">
<g clip-path="url(#clip0_382_726)">
<path d="M3.78003 0.41296C3.19171 0.556332 2.62811 1.03094 2.41058 1.56982L2.29688 1.85162V13V24.1484L2.41058 24.4302C2.74182 25.2459 3.70587 25.7749 4.57599 25.6118C5.01105 25.5327 5.31262 25.3744 5.68835 25.0284C5.85645 24.8702 7.56702 23.2338 9.48029 21.3947C11.3985 19.5506 12.9805 18.0427 13.0003 18.0427C13.0201 18.0427 14.6021 19.5506 16.5203 21.3897C20.7226 25.4338 20.5792 25.3003 20.8857 25.4387C21.9091 25.9084 23.1846 25.4338 23.59 24.4302L23.7037 24.1484V13V1.85162L23.59 1.56982C23.4467 1.21881 23.0808 0.803524 22.7545 0.625546C22.2008 0.328915 22.7693 0.343746 12.9756 0.34869C6.1333 0.353634 3.9679 0.368465 3.78003 0.41296ZM21.5532 12.8616V23.2535L21.1478 22.858C20.3271 22.067 13.559 15.5856 13.287 15.3286L13.0003 15.0616L12.7185 15.3286C12.4417 15.5856 5.67352 22.067 4.85284 22.858L4.44745 23.2535V12.8616V2.4696H13.0003H21.5532V12.8616Z" fill="black" stroke="black" stroke-width="0.5"/>
</g>
<defs>
<clipPath id="clip0_382_726">
<rect width="25.3125" height="25.3125" fill="white" transform="translate(0.34375 0.34375)"/>
</clipPath>
</defs>
</svg>
