<svg width="50" height="31" viewBox="0 0 50 31" fill="none" xmlns="http://www.w3.org/2000/svg">
<path d="M45.0214 21.6601L31.847 15.4934L45.0244 9.32484C45.9907 8.87255 46.4087 7.71974 45.9582 6.74978L45.1427 4.99392C44.6921 4.02396 43.5437 3.60437 42.5774 4.05666L24.0926 12.7094C23.7596 12.8653 23.4779 13.1133 23.2805 13.4244C23.083 13.7354 22.9781 14.0965 22.9779 14.4653V16.5384C22.9779 17.2916 23.4128 17.9764 24.0926 18.2943L42.5683 26.9422C43.537 27.3957 44.6885 26.9749 45.1403 26.0025L45.9582 24.2418C46.4099 23.2694 45.9907 22.1136 45.0214 21.6601Z" fill="black"/>
<path d="M25.9038 21.6601L12.7293 15.4934L25.9068 9.32484C26.8731 8.87255 27.2911 7.71974 26.8405 6.74978L26.025 4.99392C25.5744 4.02396 24.426 3.60437 23.4597 4.05666L4.97495 12.7094C4.642 12.8653 4.36027 13.1133 4.16283 13.4244C3.96539 13.7354 3.86044 14.0965 3.86029 14.4653L3.86029 16.5384C3.86029 17.2916 4.29518 17.9764 4.97495 18.2943L23.4507 26.9422C24.4194 27.3957 25.5708 26.9749 26.0226 26.0025L26.8405 24.2418C27.2923 23.2694 26.8731 22.1136 25.9038 21.6601Z" fill="black"/>
</svg>
