<svg width="40" height="40" viewBox="0 0 40 40" fill="none" xmlns="http://www.w3.org/2000/svg">
<path d="M7.22647 7.89844C6.81241 8 6.25772 8.38281 6.00772 8.73438C5.42179 9.5625 5.47647 10.6563 6.14835 11.4063C7.1796 12.5547 8.88272 12.3594 9.64054 11.0156C9.85147 10.6406 9.88272 10.5156 9.88272 10C9.88272 9.375 9.74991 9.01563 9.33585 8.53125C8.90616 8.02344 7.92179 7.72656 7.22647 7.89844Z" fill="black"/>
<path d="M13.7027 8.50782C12.7339 8.95313 12.4605 10.25 13.1714 11.0781C13.687 11.6875 12.9527 11.6484 23.7183 11.625L33.3277 11.6016L33.6558 11.3906C34.6402 10.7344 34.6402 9.26563 33.6558 8.60938L33.3277 8.39844L23.6792 8.38282C14.4214 8.35938 14.0073 8.36719 13.7027 8.50782Z" fill="black"/>
<path d="M7.22647 17.8984C6.81241 18 6.25772 18.3828 6.00772 18.7344C5.42179 19.5625 5.47647 20.6563 6.14835 21.4063C7.1796 22.5547 8.88272 22.3594 9.64054 21.0156C9.85147 20.6406 9.88272 20.5156 9.88272 20C9.88272 19.375 9.74991 19.0156 9.33585 18.5313C8.90616 18.0234 7.92179 17.7266 7.22647 17.8984Z" fill="black"/>
<path d="M13.7027 18.5078C12.7339 18.9531 12.4605 20.25 13.1714 21.0781C13.687 21.6875 12.9527 21.6484 23.7183 21.625L33.3277 21.6016L33.6558 21.3906C34.6402 20.7344 34.6402 19.2656 33.6558 18.6094L33.3277 18.3984L23.6792 18.3828C14.4214 18.3594 14.0073 18.3672 13.7027 18.5078Z" fill="black"/>
<path d="M7.22647 27.8984C6.81241 28 6.25772 28.3828 6.00772 28.7344C5.42179 29.5625 5.47647 30.6563 6.14835 31.4063C7.1796 32.5547 8.88272 32.3594 9.64054 31.0156C9.85147 30.6406 9.88272 30.5156 9.88272 30C9.88272 29.375 9.74991 29.0156 9.33585 28.5313C8.90616 28.0234 7.92179 27.7266 7.22647 27.8984Z" fill="black"/>
<path d="M13.7027 28.5078C12.7339 28.9531 12.4605 30.25 13.1714 31.0781C13.687 31.6875 12.9527 31.6484 23.7183 31.625L33.3277 31.6016L33.6558 31.3906C34.6402 30.7344 34.6402 29.2656 33.6558 28.6094L33.3277 28.3984L23.6792 28.3828C14.4214 28.3594 14.0073 28.3672 13.7027 28.5078Z" fill="black"/>
</svg>
