<?xml version="1.0" encoding="UTF-8"?>
<!DOCTYPE svg PUBLIC "-//W3C//DTD SVG 1.1//EN" "http://www.w3.org/Graphics/SVG/1.1/DTD/svg11.dtd">
<svg xmlns="http://www.w3.org/2000/svg" version="1.1" width="564px" height="1002px" style="shape-rendering:geometricPrecision; text-rendering:geometricPrecision; image-rendering:optimizeQuality; fill-rule:evenodd; clip-rule:evenodd" xmlns:xlink="http://www.w3.org/1999/xlink">
<g><path style="opacity:1" fill="#ece3e6" d="M -0.5,-0.5 C 54.5,-0.5 109.5,-0.5 164.5,-0.5C 166.395,4.46221 168.228,9.46221 170,14.5C 173.674,17.1343 175.674,20.8009 176,25.5C 177.438,28.8729 179.271,32.0396 181.5,35C 182.924,38.5398 183.924,42.2065 184.5,46C 187.076,49.0215 188.909,52.5215 190,56.5C 190.654,55.3044 191.154,55.3044 191.5,56.5C 191.167,57.1667 190.833,57.8333 190.5,58.5C 193.517,66.5893 195.684,74.9227 197,83.5C 198.068,95.614 199.735,107.614 202,119.5C 204.302,142.114 204.969,164.78 204,187.5C 201.637,204.353 198.637,221.019 195,237.5C 194,238.833 193,240.167 192,241.5C 192.412,248.132 190.745,254.132 187,259.5C 185.288,265.057 183.955,270.724 183,276.5C 180.312,283.456 177.812,290.456 175.5,297.5C 170.176,308.976 165.342,320.643 161,332.5C 159.488,333.257 158.154,334.257 157,335.5C 153.632,346.083 149.632,356.416 145,366.5C 142.004,369.457 140.338,373.123 140,377.5C 136.113,385.606 131.946,393.606 127.5,401.5C 122.948,411.271 118.948,421.271 115.5,431.5C 113.876,431.36 112.71,432.027 112,433.5C 111.441,437.186 110.774,440.853 110,444.5C 109.363,446.303 108.197,447.636 106.5,448.5C 103.928,454.706 102.094,461.04 101,467.5C 86.1601,509.224 80.4934,552.224 84,596.5C 86.4947,604.434 88.828,612.434 91,620.5C 92,622.167 93.3333,623.5 95,624.5C 96.9158,630.164 99.7491,635.331 103.5,640C 103.167,640.333 102.833,640.667 102.5,641C 103.249,642.734 103.749,644.567 104,646.5C 106.789,648.368 108.122,651.034 108,654.5C 109.333,655.167 110.333,656.167 111,657.5C 111.201,663.89 113.534,669.223 118,673.5C 120.423,685.002 124.09,696.002 129,706.5C 129.36,712.607 130.36,718.607 132,724.5C 132.74,726.319 133.907,727.652 135.5,728.5C 134.167,729.167 132.833,729.833 131.5,730.5C 107.416,738.575 82.7497,744.742 57.5,749C 37.9065,754.094 18.5732,759.928 -0.5,766.5C -0.5,510.833 -0.5,255.167 -0.5,-0.5 Z"/></g>
<g><path style="opacity:1" fill="#f4f0f1" d="M 164.5,-0.5 C 297.5,-0.5 430.5,-0.5 563.5,-0.5C 563.5,23.5 563.5,47.5 563.5,71.5C 562.448,71.3505 561.448,71.5172 560.5,72C 551.963,80.0403 543.296,87.8737 534.5,95.5C 532.377,96.7832 530.377,98.2832 528.5,100C 525.157,103.171 522.157,106.671 519.5,110.5C 519.5,111.167 519.167,111.5 518.5,111.5C 508.406,123.76 500.739,137.427 495.5,152.5C 495.167,152.5 494.833,152.5 494.5,152.5C 492.871,150.94 491.704,151.273 491,153.5C 490.335,158.156 489.835,162.823 489.5,167.5C 489.567,168.959 489.234,170.292 488.5,171.5C 486.903,172.737 485.737,174.404 485,176.5C 484.342,183.375 482.842,190.041 480.5,196.5C 481.095,198.44 481.428,200.44 481.5,202.5C 480.085,217.467 479.418,232.467 479.5,247.5C 479.5,247.833 479.5,248.167 479.5,248.5C 476.549,263.315 473.882,278.315 471.5,293.5C 471.705,299.398 471.705,305.398 471.5,311.5C 471.5,311.833 471.5,312.167 471.5,312.5C 468.192,313.615 467.192,315.782 468.5,319C 467.833,321 467.167,323 466.5,325C 466.316,329.829 466.316,334.662 466.5,339.5C 466.5,340.5 466.5,341.5 466.5,342.5C 465.076,344.515 464.41,346.848 464.5,349.5C 464.007,351.806 463.674,354.139 463.5,356.5C 463.167,356.5 462.833,356.5 462.5,356.5C 461.732,357.263 461.232,358.263 461,359.5C 460.706,354.441 459.539,354.274 457.5,359C 457.957,359.414 458.291,359.914 458.5,360.5C 457.746,363.777 457.246,367.11 457,370.5C 453.77,375.746 451.604,381.413 450.5,387.5C 450.167,388.5 449.5,389.167 448.5,389.5C 446.179,390.625 443.846,390.792 441.5,390C 441.07,390.92 440.736,391.753 440.5,392.5C 439.914,392.291 439.414,391.957 439,391.5C 436.83,393.672 434.497,395.672 432,397.5C 431.517,398.448 431.351,399.448 431.5,400.5C 427.436,403.555 423.103,406.222 418.5,408.5C 416.488,407.986 414.488,407.82 412.5,408C 411.149,410.264 409.483,412.098 407.5,413.5C 402.158,412.496 396.825,411.496 391.5,410.5C 379.007,409.34 366.34,409.173 353.5,410C 352.584,410.278 351.918,410.778 351.5,411.5C 315.341,416.143 286.841,433.477 266,463.5C 260.474,472.552 255.474,481.885 251,491.5C 247.482,501.918 243.815,512.251 240,522.5C 231.04,560.343 222.706,598.343 215,636.5C 208.256,658.264 198.59,678.597 186,697.5C 172.121,712.526 155.287,722.86 135.5,728.5C 133.907,727.652 132.74,726.319 132,724.5C 130.36,718.607 129.36,712.607 129,706.5C 124.09,696.002 120.423,685.002 118,673.5C 113.534,669.223 111.201,663.89 111,657.5C 110.333,656.167 109.333,655.167 108,654.5C 108.122,651.034 106.789,648.368 104,646.5C 103.749,644.567 103.249,642.734 102.5,641C 102.833,640.667 103.167,640.333 103.5,640C 99.7491,635.331 96.9158,630.164 95,624.5C 93.3333,623.5 92,622.167 91,620.5C 88.828,612.434 86.4947,604.434 84,596.5C 80.4934,552.224 86.1601,509.224 101,467.5C 102.094,461.04 103.928,454.706 106.5,448.5C 108.197,447.636 109.363,446.303 110,444.5C 110.774,440.853 111.441,437.186 112,433.5C 112.71,432.027 113.876,431.36 115.5,431.5C 118.948,421.271 122.948,411.271 127.5,401.5C 131.946,393.606 136.113,385.606 140,377.5C 140.338,373.123 142.004,369.457 145,366.5C 149.632,356.416 153.632,346.083 157,335.5C 158.154,334.257 159.488,333.257 161,332.5C 165.342,320.643 170.176,308.976 175.5,297.5C 177.812,290.456 180.312,283.456 183,276.5C 183.955,270.724 185.288,265.057 187,259.5C 190.745,254.132 192.412,248.132 192,241.5C 193,240.167 194,238.833 195,237.5C 198.637,221.019 201.637,204.353 204,187.5C 204.969,164.78 204.302,142.114 202,119.5C 199.735,107.614 198.068,95.614 197,83.5C 195.684,74.9227 193.517,66.5893 190.5,58.5C 190.833,57.8333 191.167,57.1667 191.5,56.5C 191.154,55.3044 190.654,55.3044 190,56.5C 188.909,52.5215 187.076,49.0215 184.5,46C 183.924,42.2065 182.924,38.5398 181.5,35C 179.271,32.0396 177.438,28.8729 176,25.5C 175.674,20.8009 173.674,17.1343 170,14.5C 168.228,9.46221 166.395,4.46221 164.5,-0.5 Z"/></g>
<g><path style="opacity:1" fill="#c1a0ab" d="M 563.5,71.5 C 563.5,154.5 563.5,237.5 563.5,320.5C 557.253,334.026 551.753,348.026 547,362.5C 545.839,365.185 544.006,367.185 541.5,368.5C 537.206,367.813 532.539,367.48 527.5,367.5C 527.666,375.507 527.5,383.507 527,391.5C 526.009,392.939 524.676,393.939 523,394.5C 523.409,396.225 523.242,397.892 522.5,399.5C 521.813,397.726 520.98,396.059 520,394.5C 519.405,395.899 519.572,397.232 520.5,398.5C 517.572,399.484 514.572,399.817 511.5,399.5C 511.5,404.833 511.5,410.167 511.5,415.5C 506.167,415.5 500.833,415.5 495.5,415.5C 495.5,418.833 495.5,422.167 495.5,425.5C 494.448,425.351 493.448,425.517 492.5,426C 494.063,426.759 495.063,427.926 495.5,429.5C 493.342,431.22 490.675,432.053 487.5,432C 482.136,432.829 476.802,432.663 471.5,431.5C 455.578,426.771 439.578,422.271 423.5,418C 420.692,417.402 418.192,416.235 416,414.5C 414.301,415.406 412.467,415.739 410.5,415.5C 410.5,415.167 410.5,414.833 410.5,414.5C 412.001,413.248 413.668,412.248 415.5,411.5C 418.449,410.987 421.282,410.987 424,411.5C 426.322,409.343 428.489,407.01 430.5,404.5C 432.444,403.811 434.444,403.311 436.5,403C 435.167,402.667 433.833,402.333 432.5,402C 433.056,401.617 433.389,401.117 433.5,400.5C 438.458,397.17 443.458,393.837 448.5,390.5C 450.167,390.5 451.833,390.5 453.5,390.5C 455.484,386.047 456.984,381.381 458,376.5C 459.36,374.895 460.86,373.395 462.5,372C 461.978,371.439 461.645,370.772 461.5,370C 463.249,365.689 463.916,361.189 463.5,356.5C 463.674,354.139 464.007,351.806 464.5,349.5C 466.344,347.721 467.01,345.388 466.5,342.5C 466.5,341.5 466.5,340.5 466.5,339.5C 467.234,338.292 467.567,336.959 467.5,335.5C 469.04,333.162 469.706,330.495 469.5,327.5C 470.167,322.5 470.833,317.5 471.5,312.5C 471.5,312.167 471.5,311.833 471.5,311.5C 472.451,310.081 472.784,308.415 472.5,306.5C 473.903,303.091 474.57,299.425 474.5,295.5C 476.552,279.877 478.219,264.21 479.5,248.5C 479.5,248.167 479.5,247.833 479.5,247.5C 480.167,241.167 480.833,234.833 481.5,228.5C 482.323,225.023 482.823,221.356 483,217.5C 483.497,220.146 483.664,222.813 483.5,225.5C 483.598,232.736 483.764,240.069 484,247.5C 485.446,249.941 486.279,252.608 486.5,255.5C 488.167,255.5 489.833,255.5 491.5,255.5C 491.5,250.167 491.5,244.833 491.5,239.5C 490.167,239.5 488.833,239.5 487.5,239.5C 487.777,236.552 487.444,233.719 486.5,231C 488.18,223.303 488.847,215.47 488.5,207.5C 487.5,207.5 486.5,207.5 485.5,207.5C 486.793,201.883 486.793,196.217 485.5,190.5C 486.026,187.728 486.859,185.062 488,182.5C 488.75,181.874 489.584,181.374 490.5,181C 490.167,180.667 489.833,180.333 489.5,180C 491.765,174.179 492.765,168.013 492.5,161.5C 493.578,158.598 494.244,155.598 494.5,152.5C 494.833,152.5 495.167,152.5 495.5,152.5C 496.822,152.67 497.989,152.337 499,151.5C 499.774,143.669 502.941,137.003 508.5,131.5C 509.944,128.945 511.111,126.279 512,123.5C 513,122.833 514,122.167 515,121.5C 516.63,118.312 517.796,114.979 518.5,111.5C 519.167,111.5 519.5,111.167 519.5,110.5C 520.423,111.303 521.423,111.47 522.5,111C 525.604,106.55 529.604,103.384 534.5,101.5C 533.62,99.3888 533.62,97.3888 534.5,95.5C 543.296,87.8737 551.963,80.0403 560.5,72C 561.448,71.5172 562.448,71.3505 563.5,71.5 Z"/></g>
<g><path style="opacity:1" fill="#bea4ad" d="M 534.5,95.5 C 533.62,97.3888 533.62,99.3888 534.5,101.5C 529.604,103.384 525.604,106.55 522.5,111C 521.423,111.47 520.423,111.303 519.5,110.5C 522.157,106.671 525.157,103.171 528.5,100C 530.377,98.2832 532.377,96.7832 534.5,95.5 Z"/></g>
<g><path style="opacity:1" fill="#bea3ac" d="M 518.5,111.5 C 517.796,114.979 516.63,118.312 515,121.5C 514,122.167 513,122.833 512,123.5C 511.111,126.279 509.944,128.945 508.5,131.5C 502.941,137.003 499.774,143.669 499,151.5C 497.989,152.337 496.822,152.67 495.5,152.5C 500.739,137.427 508.406,123.76 518.5,111.5 Z"/></g>
<g><path style="opacity:1" fill="#f5e7eb" d="M 494.5,152.5 C 494.244,155.598 493.578,158.598 492.5,161.5C 491.5,163.5 490.5,165.5 489.5,167.5C 489.835,162.823 490.335,158.156 491,153.5C 491.704,151.273 492.871,150.94 494.5,152.5 Z"/></g>
<g><path style="opacity:1" fill="#f4e6eb" d="M 488.5,171.5 C 484.776,190.295 482.442,209.295 481.5,228.5C 480.833,234.833 480.167,241.167 479.5,247.5C 479.418,232.467 480.085,217.467 481.5,202.5C 481.428,200.44 481.095,198.44 480.5,196.5C 482.842,190.041 484.342,183.375 485,176.5C 485.737,174.404 486.903,172.737 488.5,171.5 Z"/></g>
<g><path style="opacity:1" fill="#bea5ae" d="M 492.5,161.5 C 492.765,168.013 491.765,174.179 489.5,180C 489.833,180.333 490.167,180.667 490.5,181C 489.584,181.374 488.75,181.874 488,182.5C 486.859,185.062 486.026,187.728 485.5,190.5C 486.793,196.217 486.793,201.883 485.5,207.5C 484.833,213.5 484.167,219.5 483.5,225.5C 483.664,222.813 483.497,220.146 483,217.5C 482.823,221.356 482.323,225.023 481.5,228.5C 482.442,209.295 484.776,190.295 488.5,171.5C 489.234,170.292 489.567,168.959 489.5,167.5C 490.5,165.5 491.5,163.5 492.5,161.5 Z"/></g>
<g><path style="opacity:1" fill="#c39eab" d="M 485.5,207.5 C 486.5,207.5 487.5,207.5 488.5,207.5C 488.847,215.47 488.18,223.303 486.5,231C 487.444,233.719 487.777,236.552 487.5,239.5C 488.833,239.5 490.167,239.5 491.5,239.5C 491.5,244.833 491.5,250.167 491.5,255.5C 489.833,255.5 488.167,255.5 486.5,255.5C 486.279,252.608 485.446,249.941 484,247.5C 483.764,240.069 483.598,232.736 483.5,225.5C 484.167,219.5 484.833,213.5 485.5,207.5 Z"/></g>
<g><path style="opacity:1" fill="#f5e9ed" d="M 479.5,248.5 C 478.219,264.21 476.552,279.877 474.5,295.5C 473.097,298.909 472.43,302.575 472.5,306.5C 472.784,308.415 472.451,310.081 471.5,311.5C 471.705,305.398 471.705,299.398 471.5,293.5C 473.882,278.315 476.549,263.315 479.5,248.5 Z"/></g>
<g><path style="opacity:1" fill="#d9c4cb" d="M 474.5,295.5 C 474.57,299.425 473.903,303.091 472.5,306.5C 472.43,302.575 473.097,298.909 474.5,295.5 Z"/></g>
<g><path style="opacity:1" fill="#f9edf1" d="M 471.5,312.5 C 470.833,317.5 470.167,322.5 469.5,327.5C 467.96,329.838 467.294,332.505 467.5,335.5C 467.567,336.959 467.234,338.292 466.5,339.5C 466.316,334.662 466.316,329.829 466.5,325C 467.167,323 467.833,321 468.5,319C 467.192,315.782 468.192,313.615 471.5,312.5 Z"/></g>
<g><path style="opacity:1" fill="#e1ced5" d="M 469.5,327.5 C 469.706,330.495 469.04,333.162 467.5,335.5C 467.294,332.505 467.96,329.838 469.5,327.5 Z"/></g>
<g><path style="opacity:1" fill="#ba96a0" d="M 563.5,320.5 C 563.5,547.5 563.5,774.5 563.5,1001.5C 425.5,1001.5 287.5,1001.5 149.5,1001.5C 148.418,987.264 148.418,972.931 149.5,958.5C 148.909,954.508 147.576,950.841 145.5,947.5C 145.917,941.996 147.084,936.662 149,931.5C 158.463,913.234 171.63,898.234 188.5,886.5C 191.007,886.34 193.507,886.34 196,886.5C 199.602,885.548 203.269,883.882 207,881.5C 207.167,881.167 207.333,880.833 207.5,880.5C 206.5,879.833 205.5,879.167 204.5,878.5C 206.351,876.544 208.684,875.544 211.5,875.5C 211.351,874.448 211.517,873.448 212,872.5C 213.579,873.172 214.746,872.505 215.5,870.5C 218.998,866.913 223.332,864.579 228.5,863.5C 230.833,863.5 233.167,863.5 235.5,863.5C 235.45,861.41 236.45,860.077 238.5,859.5C 242.494,859.67 246.494,859.836 250.5,860C 251.665,858.916 252.998,858.083 254.5,857.5C 255.429,856.311 255.762,854.978 255.5,853.5C 260.324,854.029 264.657,852.862 268.5,850C 267.748,849.329 267.414,848.496 267.5,847.5C 277.531,843.265 287.865,839.599 298.5,836.5C 301.237,835.787 303.904,835.787 306.5,836.5C 309.215,834.452 311.548,832.118 313.5,829.5C 315.493,827.837 317.826,826.67 320.5,826C 325.715,821.612 330.715,817.112 335.5,812.5C 336.151,813.091 336.818,813.757 337.5,814.5C 340.179,810.963 343.012,808.297 346,806.5C 346.132,801.274 347.632,796.607 350.5,792.5C 351.484,789.572 351.817,786.572 351.5,783.5C 357.685,783.151 361.185,779.818 362,773.5C 362.711,771.101 362.544,768.768 361.5,766.5C 362.083,764.998 362.916,763.665 364,762.5C 364.204,755.783 364.704,749.117 365.5,742.5C 365.058,741.261 364.391,740.261 363.5,739.5C 363.5,739.167 363.5,738.833 363.5,738.5C 364.712,737.77 365.712,736.77 366.5,735.5C 367.498,726.859 367.831,718.192 367.5,709.5C 367.5,705.833 367.5,702.167 367.5,698.5C 367.5,690.833 367.5,683.167 367.5,675.5C 367.5,672.167 367.5,668.833 367.5,665.5C 367.666,660.156 367.499,654.823 367,649.5C 366.292,648.619 365.458,647.953 364.5,647.5C 364.721,644.721 364.388,642.054 363.5,639.5C 364.636,637.954 365.302,636.121 365.5,634C 363.805,629.72 362.805,625.22 362.5,620.5C 361.5,620.5 360.5,620.5 359.5,620.5C 359.142,614.263 358.142,608.263 356.5,602.5C 355.255,594.207 354.255,585.874 353.5,577.5C 353.473,571.949 352.806,566.616 351.5,561.5C 350.22,539.494 350.22,517.494 351.5,495.5C 351.833,495.5 352.167,495.5 352.5,495.5C 354.614,494.64 355.78,492.973 356,490.5C 356.333,491.5 356.667,492.5 357,493.5C 357.333,491.5 357.667,489.5 358,487.5C 359.016,488.634 359.683,488.301 360,486.5C 361.918,483.598 361.751,480.931 359.5,478.5C 360.592,475.906 362.259,473.739 364.5,472C 363.366,470.984 363.699,470.317 365.5,470C 364.577,467.959 364.244,465.792 364.5,463.5C 365.5,463.5 366.5,463.5 367.5,463.5C 367.5,460.833 367.5,458.167 367.5,455.5C 379.295,439.369 393.628,426.036 410.5,415.5C 412.467,415.739 414.301,415.406 416,414.5C 418.192,416.235 420.692,417.402 423.5,418C 439.578,422.271 455.578,426.771 471.5,431.5C 476.802,432.663 482.136,432.829 487.5,432C 490.675,432.053 493.342,431.22 495.5,429.5C 506.062,425.771 513.562,418.771 518,408.5C 523.414,401.107 528.747,393.774 534,386.5C 536.007,380.315 538.507,374.315 541.5,368.5C 544.006,367.185 545.839,365.185 547,362.5C 551.753,348.026 557.253,334.026 563.5,320.5 Z"/></g>
<g><path style="opacity:1" fill="#cdbcc2" d="M 466.5,342.5 C 467.01,345.388 466.344,347.721 464.5,349.5C 464.41,346.848 465.076,344.515 466.5,342.5 Z"/></g>
<g><path style="opacity:1" fill="#f8ebef" d="M 462.5,356.5 C 461.656,361.879 460.489,367.212 459,372.5C 456.89,375.492 455.557,378.825 455,382.5C 453.483,384.24 451.983,385.906 450.5,387.5C 451.604,381.413 453.77,375.746 457,370.5C 457.246,367.11 457.746,363.777 458.5,360.5C 458.291,359.914 457.957,359.414 457.5,359C 459.539,354.274 460.706,354.441 461,359.5C 461.232,358.263 461.732,357.263 462.5,356.5 Z"/></g>
<g><path style="opacity:1" fill="#c0a6ae" d="M 462.5,356.5 C 462.833,356.5 463.167,356.5 463.5,356.5C 463.916,361.189 463.249,365.689 461.5,370C 461.645,370.772 461.978,371.439 462.5,372C 460.86,373.395 459.36,374.895 458,376.5C 456.984,381.381 455.484,386.047 453.5,390.5C 451.833,390.5 450.167,390.5 448.5,390.5C 448.5,390.167 448.5,389.833 448.5,389.5C 449.5,389.167 450.167,388.5 450.5,387.5C 451.983,385.906 453.483,384.24 455,382.5C 455.557,378.825 456.89,375.492 459,372.5C 460.489,367.212 461.656,361.879 462.5,356.5 Z"/></g>
<g><path style="opacity:1" fill="#f8ebf0" d="M 448.5,389.5 C 448.5,389.833 448.5,390.167 448.5,390.5C 443.458,393.837 438.458,397.17 433.5,400.5C 432.833,400.5 432.167,400.5 431.5,400.5C 431.351,399.448 431.517,398.448 432,397.5C 434.497,395.672 436.83,393.672 439,391.5C 439.414,391.957 439.914,392.291 440.5,392.5C 440.736,391.753 441.07,390.92 441.5,390C 443.846,390.792 446.179,390.625 448.5,389.5 Z"/></g>
<g><path style="opacity:1" fill="#bfa4ad" d="M 431.5,400.5 C 432.167,400.5 432.833,400.5 433.5,400.5C 433.389,401.117 433.056,401.617 432.5,402C 433.833,402.333 435.167,402.667 436.5,403C 434.444,403.311 432.444,403.811 430.5,404.5C 428.489,407.01 426.322,409.343 424,411.5C 421.282,410.987 418.449,410.987 415.5,411.5C 416.694,410.728 417.694,409.728 418.5,408.5C 423.103,406.222 427.436,403.555 431.5,400.5 Z"/></g>
<g><path style="opacity:1" fill="#e6ddde" d="M 391.5,410.5 C 378.137,410.242 364.804,410.575 351.5,411.5C 351.918,410.778 352.584,410.278 353.5,410C 366.34,409.173 379.007,409.34 391.5,410.5 Z"/></g>
<g><path style="opacity:1" fill="#f9ebf0" d="M 418.5,408.5 C 417.694,409.728 416.694,410.728 415.5,411.5C 413.668,412.248 412.001,413.248 410.5,414.5C 409.209,414.737 408.209,414.404 407.5,413.5C 409.483,412.098 411.149,410.264 412.5,408C 414.488,407.82 416.488,407.986 418.5,408.5 Z"/></g>
<g><path style="opacity:1" fill="#dbcccf" d="M 391.5,410.5 C 396.825,411.496 402.158,412.496 407.5,413.5C 408.209,414.404 409.209,414.737 410.5,414.5C 410.5,414.833 410.5,415.167 410.5,415.5C 393.628,426.036 379.295,439.369 367.5,455.5C 367.167,455.5 366.833,455.5 366.5,455.5C 365.167,455.5 363.833,455.5 362.5,455.5C 362.657,456.873 362.49,458.207 362,459.5C 361.667,459.167 361.333,458.833 361,458.5C 360.447,463.126 358.281,466.626 354.5,469C 354.957,469.414 355.291,469.914 355.5,470.5C 353.523,473.859 352.356,477.526 352,481.5C 351.501,486.155 351.334,490.821 351.5,495.5C 350.22,517.494 350.22,539.494 351.5,561.5C 351.334,566.511 351.501,571.511 352,576.5C 352.383,577.056 352.883,577.389 353.5,577.5C 354.255,585.874 355.255,594.207 356.5,602.5C 356.334,607.844 356.501,613.177 357,618.5C 357.417,619.756 358.25,620.423 359.5,620.5C 360.007,624.86 360.673,629.193 361.5,633.5C 361.515,640.458 361.182,647.458 360.5,654.5C 361.863,655.893 362.696,657.559 363,659.5C 362.911,662.631 363.078,665.631 363.5,668.5C 364.861,670.85 366.194,673.184 367.5,675.5C 367.5,683.167 367.5,690.833 367.5,698.5C 366.549,699.919 366.216,701.585 366.5,703.5C 365.167,703.5 363.833,703.5 362.5,703.5C 362.642,707.545 362.642,711.379 362.5,715C 363.516,715.519 364.182,716.353 364.5,717.5C 362.169,720.942 360.836,724.776 360.5,729C 361.204,736.686 361.204,744.186 360.5,751.5C 359.562,756.127 358.729,760.794 358,765.5C 355.33,771.344 353.164,777.344 351.5,783.5C 348.389,789.315 345.555,795.315 343,801.5C 339.491,804.531 336.991,808.198 335.5,812.5C 330.715,817.112 325.715,821.612 320.5,826C 317.826,826.67 315.493,827.837 313.5,829.5C 308.352,831.575 303.352,833.908 298.5,836.5C 287.865,839.599 277.531,843.265 267.5,847.5C 262.806,848.12 258.306,849.453 254,851.5C 247.238,854.463 240.404,857.297 233.5,860C 231.416,860.697 229.749,861.864 228.5,863.5C 223.332,864.579 218.998,866.913 215.5,870.5C 205.471,874.216 196.471,879.55 188.5,886.5C 171.63,898.234 158.463,913.234 149,931.5C 147.084,936.662 145.917,941.996 145.5,947.5C 143.953,954.766 143.286,962.266 143.5,970C 143.803,980.504 144.136,991.004 144.5,1001.5C 96.1667,1001.5 47.8333,1001.5 -0.5,1001.5C -0.5,977.167 -0.5,952.833 -0.5,928.5C 7.25971,928.117 13.9264,925.284 19.5,920C 27.418,919.299 34.5847,916.466 41,911.5C 43.0466,910.391 45.2133,909.724 47.5,909.5C 47.238,908.022 47.5713,906.689 48.5,905.5C 53.8321,904.221 58.6654,901.888 63,898.5C 63.4828,897.552 63.6495,896.552 63.5,895.5C 64.552,895.649 65.552,895.483 66.5,895C 73.3582,889.743 80.3582,884.743 87.5,880C 87.1667,879.667 86.8333,879.333 86.5,879C 89.2161,875.739 92.0494,872.572 95,869.5C 95.3333,870.167 95.6667,870.833 96,871.5C 98.19,867.762 100.523,864.096 103,860.5C 103.494,858.866 103.66,857.199 103.5,855.5C 104.552,855.649 105.552,855.483 106.5,855C 108.662,851.671 111.329,848.838 114.5,846.5C 121.407,831.533 127.573,816.2 133,800.5C 134.983,787.42 135.816,774.254 135.5,761C 135.139,751.793 135.139,742.793 135.5,734C 132.833,733 132.833,732 135.5,731C 134.207,730.51 132.873,730.343 131.5,730.5C 132.833,729.833 134.167,729.167 135.5,728.5C 155.287,722.86 172.121,712.526 186,697.5C 198.59,678.597 208.256,658.264 215,636.5C 222.706,598.343 231.04,560.343 240,522.5C 243.815,512.251 247.482,501.918 251,491.5C 255.474,481.885 260.474,472.552 266,463.5C 286.841,433.477 315.341,416.143 351.5,411.5C 364.804,410.575 378.137,410.242 391.5,410.5 Z"/></g>
<g><path style="opacity:1" fill="#c29ea9" d="M 541.5,368.5 C 538.507,374.315 536.007,380.315 534,386.5C 528.747,393.774 523.414,401.107 518,408.5C 513.562,418.771 506.062,425.771 495.5,429.5C 495.063,427.926 494.063,426.759 492.5,426C 493.448,425.517 494.448,425.351 495.5,425.5C 495.5,422.167 495.5,418.833 495.5,415.5C 500.833,415.5 506.167,415.5 511.5,415.5C 511.5,410.167 511.5,404.833 511.5,399.5C 514.572,399.817 517.572,399.484 520.5,398.5C 519.572,397.232 519.405,395.899 520,394.5C 520.98,396.059 521.813,397.726 522.5,399.5C 523.242,397.892 523.409,396.225 523,394.5C 524.676,393.939 526.009,392.939 527,391.5C 527.5,383.507 527.666,375.507 527.5,367.5C 532.539,367.48 537.206,367.813 541.5,368.5 Z"/></g>
<g><path style="opacity:1" fill="#b898a1" d="M 366.5,455.5 C 366.833,455.5 367.167,455.5 367.5,455.5C 367.5,458.167 367.5,460.833 367.5,463.5C 366.5,463.5 365.5,463.5 364.5,463.5C 364.244,465.792 364.577,467.959 365.5,470C 363.699,470.317 363.366,470.984 364.5,472C 362.259,473.739 360.592,475.906 359.5,478.5C 361.751,480.931 361.918,483.598 360,486.5C 359.683,488.301 359.016,488.634 358,487.5C 357.667,489.5 357.333,491.5 357,493.5C 356.667,492.5 356.333,491.5 356,490.5C 355.78,492.973 354.614,494.64 352.5,495.5C 354.593,481.218 359.26,467.885 366.5,455.5 Z"/></g>
<g><path style="opacity:1" fill="#dcc8cd" d="M 366.5,455.5 C 359.26,467.885 354.593,481.218 352.5,495.5C 352.167,495.5 351.833,495.5 351.5,495.5C 351.334,490.821 351.501,486.155 352,481.5C 352.356,477.526 353.523,473.859 355.5,470.5C 355.291,469.914 354.957,469.414 354.5,469C 358.281,466.626 360.447,463.126 361,458.5C 361.333,458.833 361.667,459.167 362,459.5C 362.49,458.207 362.657,456.873 362.5,455.5C 363.833,455.5 365.167,455.5 366.5,455.5 Z"/></g>
<g><path style="opacity:1" fill="#dbbec6" d="M 351.5,561.5 C 352.806,566.616 353.473,571.949 353.5,577.5C 352.883,577.389 352.383,577.056 352,576.5C 351.501,571.511 351.334,566.511 351.5,561.5 Z"/></g>
<g><path style="opacity:1" fill="#dcc4ca" d="M 356.5,602.5 C 358.142,608.263 359.142,614.263 359.5,620.5C 358.25,620.423 357.417,619.756 357,618.5C 356.501,613.177 356.334,607.844 356.5,602.5 Z"/></g>
<g><path style="opacity:1" fill="#b99ca4" d="M 359.5,620.5 C 360.5,620.5 361.5,620.5 362.5,620.5C 362.805,625.22 363.805,629.72 365.5,634C 365.302,636.121 364.636,637.954 363.5,639.5C 362.833,637.5 362.167,635.5 361.5,633.5C 360.673,629.193 360.007,624.86 359.5,620.5 Z"/></g>
<g><path style="opacity:1" fill="#b89fa5" d="M 364.5,647.5 C 365.458,647.953 366.292,648.619 367,649.5C 367.499,654.823 367.666,660.156 367.5,665.5C 365.957,659.72 364.957,653.72 364.5,647.5 Z"/></g>
<g><path style="opacity:1" fill="#dcc8cd" d="M 361.5,633.5 C 362.167,635.5 362.833,637.5 363.5,639.5C 364.388,642.054 364.721,644.721 364.5,647.5C 364.957,653.72 365.957,659.72 367.5,665.5C 367.5,668.833 367.5,672.167 367.5,675.5C 366.194,673.184 364.861,670.85 363.5,668.5C 363.078,665.631 362.911,662.631 363,659.5C 362.696,657.559 361.863,655.893 360.5,654.5C 361.182,647.458 361.515,640.458 361.5,633.5 Z"/></g>
<g><path style="opacity:1" fill="#b99fa6" d="M 367.5,709.5 C 367.831,718.192 367.498,726.859 366.5,735.5C 365.712,736.77 364.712,737.77 363.5,738.5C 364.291,728.631 365.625,718.964 367.5,709.5 Z"/></g>
<g><path style="opacity:1" fill="#ddc9cd" d="M 367.5,698.5 C 367.5,702.167 367.5,705.833 367.5,709.5C 365.625,718.964 364.291,728.631 363.5,738.5C 363.5,738.833 363.5,739.167 363.5,739.5C 362.177,743.429 361.177,747.429 360.5,751.5C 361.204,744.186 361.204,736.686 360.5,729C 360.836,724.776 362.169,720.942 364.5,717.5C 364.182,716.353 363.516,715.519 362.5,715C 362.642,711.379 362.642,707.545 362.5,703.5C 363.833,703.5 365.167,703.5 366.5,703.5C 366.216,701.585 366.549,699.919 367.5,698.5 Z"/></g>
<g><path style="opacity:1" fill="#d7c7ca" d="M 131.5,730.5 C 132.873,730.343 134.207,730.51 135.5,731C 132.833,732 132.833,733 135.5,734C 135.139,742.793 135.139,751.793 135.5,761C 135.816,774.254 134.983,787.42 133,800.5C 127.573,816.2 121.407,831.533 114.5,846.5C 111.329,848.838 108.662,851.671 106.5,855C 105.552,855.483 104.552,855.649 103.5,855.5C 103.66,857.199 103.494,858.866 103,860.5C 100.523,864.096 98.19,867.762 96,871.5C 95.6667,870.833 95.3333,870.167 95,869.5C 92.0494,872.572 89.2161,875.739 86.5,879C 86.8333,879.333 87.1667,879.667 87.5,880C 80.3582,884.743 73.3582,889.743 66.5,895C 65.552,895.483 64.552,895.649 63.5,895.5C 63.6495,896.552 63.4828,897.552 63,898.5C 58.6654,901.888 53.8321,904.221 48.5,905.5C 47.5713,906.689 47.238,908.022 47.5,909.5C 45.2133,909.724 43.0466,910.391 41,911.5C 34.5847,916.466 27.418,919.299 19.5,920C 13.9264,925.284 7.25971,928.117 -0.5,928.5C -0.5,874.5 -0.5,820.5 -0.5,766.5C 18.5732,759.928 37.9065,754.094 57.5,749C 82.7497,744.742 107.416,738.575 131.5,730.5 Z"/></g>
<g><path style="opacity:1" fill="#b798a1" d="M 363.5,739.5 C 364.391,740.261 365.058,741.261 365.5,742.5C 364.704,749.117 364.204,755.783 364,762.5C 362.916,763.665 362.083,764.998 361.5,766.5C 362.544,768.768 362.711,771.101 362,773.5C 361.185,779.818 357.685,783.151 351.5,783.5C 353.164,777.344 355.33,771.344 358,765.5C 358.729,760.794 359.562,756.127 360.5,751.5C 361.177,747.429 362.177,743.429 363.5,739.5 Z"/></g>
<g><path style="opacity:1" fill="#b899a1" d="M 351.5,783.5 C 351.817,786.572 351.484,789.572 350.5,792.5C 347.632,796.607 346.132,801.274 346,806.5C 343.012,808.297 340.179,810.963 337.5,814.5C 336.818,813.757 336.151,813.091 335.5,812.5C 336.991,808.198 339.491,804.531 343,801.5C 345.555,795.315 348.389,789.315 351.5,783.5 Z"/></g>
<g><path style="opacity:1" fill="#b89ea5" d="M 313.5,829.5 C 311.548,832.118 309.215,834.452 306.5,836.5C 303.904,835.787 301.237,835.787 298.5,836.5C 303.352,833.908 308.352,831.575 313.5,829.5 Z"/></g>
<g><path style="opacity:1" fill="#b799a1" d="M 267.5,847.5 C 267.414,848.496 267.748,849.329 268.5,850C 264.657,852.862 260.324,854.029 255.5,853.5C 255.762,854.978 255.429,856.311 254.5,857.5C 252.998,858.083 251.665,858.916 250.5,860C 246.494,859.836 242.494,859.67 238.5,859.5C 236.45,860.077 235.45,861.41 235.5,863.5C 233.167,863.5 230.833,863.5 228.5,863.5C 229.749,861.864 231.416,860.697 233.5,860C 240.404,857.297 247.238,854.463 254,851.5C 258.306,849.453 262.806,848.12 267.5,847.5 Z"/></g>
<g><path style="opacity:1" fill="#b798a1" d="M 215.5,870.5 C 214.746,872.505 213.579,873.172 212,872.5C 211.517,873.448 211.351,874.448 211.5,875.5C 208.684,875.544 206.351,876.544 204.5,878.5C 205.5,879.167 206.5,879.833 207.5,880.5C 207.333,880.833 207.167,881.167 207,881.5C 203.269,883.882 199.602,885.548 196,886.5C 193.507,886.34 191.007,886.34 188.5,886.5C 196.471,879.55 205.471,874.216 215.5,870.5 Z"/></g>
<g><path style="opacity:1" fill="#ba9ba3" d="M 145.5,947.5 C 147.576,950.841 148.909,954.508 149.5,958.5C 148.418,972.931 148.418,987.264 149.5,1001.5C 147.833,1001.5 146.167,1001.5 144.5,1001.5C 144.136,991.004 143.803,980.504 143.5,970C 143.286,962.266 143.953,954.766 145.5,947.5 Z"/></g>
</svg>
