<svg width="28" height="27" viewBox="0 0 28 27" fill="none" xmlns="http://www.w3.org/2000/svg">
<path d="M14.7133 2.67787L16.5297 8.26818C16.9648 9.60725 18.2126 10.5139 19.6206 10.5139H25.4986C26.2252 10.5139 26.5272 11.4436 25.9395 11.8706L21.1841 15.3256C20.045 16.1532 19.5683 17.6202 20.0034 18.9592L21.8198 24.5495C22.0443 25.2405 21.2535 25.8151 20.6657 25.3881L15.9103 21.9331C14.7712 21.1055 13.2288 21.1055 12.0897 21.9331L7.3343 25.3881C6.74652 25.8151 5.95566 25.2405 6.18017 24.5495L7.99657 18.9592C8.43166 17.6202 7.95502 16.1532 6.81594 15.3256L2.06054 11.8706C1.47276 11.4436 1.77483 10.5139 2.50138 10.5139H8.37937C9.78736 10.5139 11.0352 9.60725 11.4703 8.26818L13.2867 2.67787C13.5112 1.98689 14.4888 1.98689 14.7133 2.67787Z" fill="#D9D9D9" stroke="black" stroke-width="2.5"/>
</svg>
