<svg width="25" height="24" viewBox="0 0 25 24" fill="none" xmlns="http://www.w3.org/2000/svg">
<path d="M11.5489 1.33709C11.8483 0.415777 13.1517 0.415774 13.4511 1.33708L15.5309 7.7383C15.6648 8.15033 16.0488 8.42929 16.482 8.42929L23.2126 8.42929C24.1814 8.42929 24.5841 9.6689 23.8004 10.2383L18.3552 14.1945C18.0047 14.4491 17.8581 14.9005 17.9919 15.3125L20.0718 21.7137C20.3712 22.635 19.3167 23.4012 18.533 22.8318L13.0878 18.8756C12.7373 18.6209 12.2627 18.6209 11.9122 18.8756L6.46701 22.8318C5.6833 23.4012 4.62882 22.635 4.92817 21.7137L7.00805 15.3125C7.14193 14.9005 6.99527 14.4491 6.64478 14.1945L1.19958 10.2383C0.415862 9.6689 0.81864 8.42929 1.78736 8.42929L8.51801 8.42929C8.95123 8.42929 9.33519 8.15033 9.46906 7.7383L11.5489 1.33709Z" fill="#FAF0A9"/>
</svg>
