<?xml version="1.0" encoding="UTF-8"?>
<!DOCTYPE svg PUBLIC "-//W3C//DTD SVG 1.1//EN" "http://www.w3.org/Graphics/SVG/1.1/DTD/svg11.dtd">
<svg xmlns="http://www.w3.org/2000/svg" version="1.1" width="555px" height="1200px" style="shape-rendering:geometricPrecision; text-rendering:geometricPrecision; image-rendering:optimizeQuality; fill-rule:evenodd; clip-rule:evenodd" xmlns:xlink="http://www.w3.org/1999/xlink">
<g><path style="opacity:1" fill="#eee5e9" d="M -0.5,-0.5 C 48.5,-0.5 97.5,-0.5 146.5,-0.5C 140.91,15.195 136.577,31.195 133.5,47.5C 131.961,54.4317 131.294,61.5984 131.5,69C 131.522,74.5487 131.856,80.0487 132.5,85.5C 131.833,86.5 131.167,87.5 130.5,88.5C 131.098,95.9143 133.431,102.581 137.5,108.5C 143.228,125.242 149.062,141.909 155,158.5C 158.383,163.999 161.383,169.666 164,175.5C 167.774,187.081 171.608,198.748 175.5,210.5C 178.774,223.883 181.941,237.216 185,250.5C 185.499,254.821 185.666,259.154 185.5,263.5C 186.233,282.157 186.566,300.824 186.5,319.5C 184.8,338.745 182.967,358.079 181,377.5C 179.994,394.164 179.161,410.83 178.5,427.5C 140.022,421.609 101.689,422.442 63.5,430C 53.0369,433.95 42.3702,437.283 31.5,440C 22.3191,443.388 13.6524,447.721 5.5,453C 3.48174,453.505 1.48174,454.005 -0.5,454.5C -0.5,302.833 -0.5,151.167 -0.5,-0.5 Z"/></g>
<g><path style="opacity:1" fill="#ddbecb" d="M 146.5,-0.5 C 282.167,-0.5 417.833,-0.5 553.5,-0.5C 553.5,34.1667 553.5,68.8333 553.5,103.5C 552.232,101.095 551.565,98.4282 551.5,95.5C 550.5,95.5 549.5,95.5 548.5,95.5C 549.205,100.776 549.205,106.109 548.5,111.5C 549.5,111.5 550.5,111.5 551.5,111.5C 552.655,277.62 552.822,443.953 552,610.5C 549.678,612.492 547.845,614.825 546.5,617.5C 544.615,619.053 543.615,621.053 543.5,623.5C 541.396,623.201 539.396,623.534 537.5,624.5C 485.234,660.535 427.234,674.702 363.5,667C 346.371,665.051 329.705,661.217 313.5,655.5C 313.167,655.5 312.833,655.5 312.5,655.5C 310.114,640.216 307.948,624.883 306,609.5C 305.667,609.833 305.333,610.167 305,610.5C 304.815,582.819 304.149,555.152 303,527.5C 301.021,505.524 292.854,486.358 278.5,470C 276.532,468.456 274.365,467.289 272,466.5C 271.517,465.552 271.351,464.552 271.5,463.5C 270.127,463.657 268.793,463.49 267.5,463C 240.685,444.554 211.018,433.054 178.5,428.5C 178.5,428.167 178.5,427.833 178.5,427.5C 179.161,410.83 179.994,394.164 181,377.5C 182.967,358.079 184.8,338.745 186.5,319.5C 187.166,311.674 187.5,303.674 187.5,295.5C 187.724,284.618 187.058,273.951 185.5,263.5C 185.666,259.154 185.499,254.821 185,250.5C 181.941,237.216 178.774,223.883 175.5,210.5C 171.608,198.748 167.774,187.081 164,175.5C 161.383,169.666 158.383,163.999 155,158.5C 149.062,141.909 143.228,125.242 137.5,108.5C 135.765,101.629 134.598,94.6292 134,87.5C 133.5,74.1708 133.333,60.8375 133.5,47.5C 136.577,31.195 140.91,15.195 146.5,-0.5 Z"/></g>
<g><path style="opacity:1" fill="#e4d0d9" d="M 133.5,47.5 C 133.333,60.8375 133.5,74.1708 134,87.5C 134.598,94.6292 135.765,101.629 137.5,108.5C 133.431,102.581 131.098,95.9143 130.5,88.5C 131.167,87.5 131.833,86.5 132.5,85.5C 131.856,80.0487 131.522,74.5487 131.5,69C 131.294,61.5984 131.961,54.4317 133.5,47.5 Z"/></g>
<g><path style="opacity:1" fill="#d9bfca" d="M 553.5,103.5 C 553.5,273.5 553.5,443.5 553.5,613.5C 551.357,615.074 549.024,616.408 546.5,617.5C 547.845,614.825 549.678,612.492 552,610.5C 552.822,443.953 552.655,277.62 551.5,111.5C 550.5,111.5 549.5,111.5 548.5,111.5C 549.205,106.109 549.205,100.776 548.5,95.5C 549.5,95.5 550.5,95.5 551.5,95.5C 551.565,98.4282 552.232,101.095 553.5,103.5 Z"/></g>
<g><path style="opacity:1" fill="#e5d2d8" d="M 185.5,263.5 C 187.058,273.951 187.724,284.618 187.5,295.5C 187.5,303.674 187.166,311.674 186.5,319.5C 186.566,300.824 186.233,282.157 185.5,263.5 Z"/></g>
<g><path style="opacity:1" fill="#c2b8cd" d="M 178.5,427.5 C 178.5,427.833 178.5,428.167 178.5,428.5C 178.082,448.212 178.749,467.878 180.5,487.5C 183.245,500.06 185.412,512.726 187,525.5C 187.71,526.973 188.876,527.64 190.5,527.5C 191.116,533.071 192.616,538.404 195,543.5C 202.781,559.219 211.115,574.552 220,589.5C 221.441,590.87 223.108,591.87 225,592.5C 241.556,613.405 261.389,630.238 284.5,643C 293.964,646.899 303.298,651.066 312.5,655.5C 312.833,655.5 313.167,655.5 313.5,655.5C 317.014,663.36 320.347,671.36 323.5,679.5C 328.936,688.414 334.103,697.414 339,706.5C 342.529,708.552 344.862,711.552 346,715.5C 350.447,719.947 354.78,724.28 359,728.5C 359.333,729.5 359.667,730.5 360,731.5C 371.721,744.549 383.388,757.549 395,770.5C 405.991,784.17 416.657,798.17 427,812.5C 433.348,823.202 439.681,833.869 446,844.5C 446.899,848.538 448.566,852.205 451,855.5C 452.639,861.171 454.139,866.838 455.5,872.5C 436.831,872.833 418.164,873.333 399.5,874C 378.137,875.761 356.803,877.595 335.5,879.5C 325.92,881.079 316.253,882.413 306.5,883.5C 300.341,884.88 294.674,887.213 289.5,890.5C 283.805,893.4 277.805,895.067 271.5,895.5C 271.5,896.5 271.5,897.5 271.5,898.5C 259.114,902.523 248.114,908.857 238.5,917.5C 236.833,918.333 235.167,919.167 233.5,920C 226.979,927.353 220.646,934.853 214.5,942.5C 213.675,943.386 212.675,943.719 211.5,943.5C 211.5,944.833 211.5,946.167 211.5,947.5C 210.167,947.5 208.833,947.5 207.5,947.5C 207.664,950.187 207.497,952.854 207,955.5C 205.382,957.234 203.882,959.067 202.5,961C 200.832,966.169 198.498,971.003 195.5,975.5C 193.555,980.709 192.222,986.043 191.5,991.5C 190.414,991.62 189.747,992.287 189.5,993.5C 186.426,1011.35 185.093,1029.35 185.5,1047.5C 185.833,1055.5 186.167,1063.5 186.5,1071.5C 187.523,1079.77 189.189,1087.77 191.5,1095.5C 191.271,1099.92 192.271,1103.92 194.5,1107.5C 194.5,1108.17 194.5,1108.83 194.5,1109.5C 192.801,1109.34 191.134,1109.51 189.5,1110C 185.47,1112.74 181.137,1114.91 176.5,1116.5C 175.614,1117.32 175.281,1118.32 175.5,1119.5C 166.461,1121.01 157.794,1123.85 149.5,1128C 104.445,1142.94 58.445,1146.44 11.5,1138.5C 7.71296,1136.68 3.71296,1135.68 -0.5,1135.5C -0.5,908.5 -0.5,681.5 -0.5,454.5C 1.48174,454.005 3.48174,453.505 5.5,453C 13.6524,447.721 22.3191,443.388 31.5,440C 42.3702,437.283 53.0369,433.95 63.5,430C 101.689,422.442 140.022,421.609 178.5,427.5 Z"/></g>
<g><path style="opacity:1" fill="#bba9c2" d="M 178.5,428.5 C 211.018,433.054 240.685,444.554 267.5,463C 268.793,463.49 270.127,463.657 271.5,463.5C 271.351,464.552 271.517,465.552 272,466.5C 274.365,467.289 276.532,468.456 278.5,470C 292.854,486.358 301.021,505.524 303,527.5C 304.149,555.152 304.815,582.819 305,610.5C 305.333,610.167 305.667,609.833 306,609.5C 307.948,624.883 310.114,640.216 312.5,655.5C 303.298,651.066 293.964,646.899 284.5,643C 261.389,630.238 241.556,613.405 225,592.5C 223.108,591.87 221.441,590.87 220,589.5C 211.115,574.552 202.781,559.219 195,543.5C 192.616,538.404 191.116,533.071 190.5,527.5C 188.876,527.64 187.71,526.973 187,525.5C 185.412,512.726 183.245,500.06 180.5,487.5C 178.749,467.878 178.082,448.212 178.5,428.5 Z"/></g>
<g><path style="opacity:1" fill="#eee5e9" d="M 553.5,613.5 C 553.5,702.833 553.5,792.167 553.5,881.5C 549.257,880.319 544.924,879.652 540.5,879.5C 536.364,878.073 532.031,876.907 527.5,876C 503.951,872.842 480.285,871.676 456.5,872.5C 456.167,872.5 455.833,872.5 455.5,872.5C 454.139,866.838 452.639,861.171 451,855.5C 448.566,852.205 446.899,848.538 446,844.5C 439.681,833.869 433.348,823.202 427,812.5C 416.657,798.17 405.991,784.17 395,770.5C 383.388,757.549 371.721,744.549 360,731.5C 359.667,730.5 359.333,729.5 359,728.5C 354.78,724.28 350.447,719.947 346,715.5C 344.862,711.552 342.529,708.552 339,706.5C 334.103,697.414 328.936,688.414 323.5,679.5C 320.347,671.36 317.014,663.36 313.5,655.5C 329.705,661.217 346.371,665.051 363.5,667C 427.234,674.702 485.234,660.535 537.5,624.5C 539.396,623.534 541.396,623.201 543.5,623.5C 543.615,621.053 544.615,619.053 546.5,617.5C 549.024,616.408 551.357,615.074 553.5,613.5 Z"/></g>
<g><path style="opacity:1" fill="#ddb0b7" d="M 456.5,873.5 C 484.69,873.359 512.69,875.359 540.5,879.5C 544.924,879.652 549.257,880.319 553.5,881.5C 551.562,987.471 550.895,1093.47 551.5,1199.5C 444.833,1199.5 338.167,1199.5 231.5,1199.5C 229.22,1195.38 226.72,1191.38 224,1187.5C 223.51,1186.21 223.343,1184.87 223.5,1183.5C 222.325,1183.72 221.325,1183.39 220.5,1182.5C 212.993,1166.48 206.16,1150.14 200,1133.5C 197.632,1125.63 195.799,1117.63 194.5,1109.5C 194.5,1108.83 194.5,1108.17 194.5,1107.5C 197.273,1107.19 199.607,1106.02 201.5,1104C 203.473,1103.5 205.473,1103.34 207.5,1103.5C 207.281,1102.32 207.614,1101.32 208.5,1100.5C 214.415,1097.37 220.415,1094.54 226.5,1092C 229.91,1088.02 234.243,1086.52 239.5,1087.5C 239.5,1086.17 239.5,1084.83 239.5,1083.5C 240.873,1083.66 242.207,1083.49 243.5,1083C 246.367,1081.26 249.034,1079.26 251.5,1077C 259.311,1075.3 266.311,1071.8 272.5,1066.5C 276.456,1065.13 280.123,1063.3 283.5,1061C 284.793,1060.51 286.127,1060.34 287.5,1060.5C 287.215,1058.71 287.548,1057.05 288.5,1055.5C 288.354,1056.98 289.187,1058.31 291,1059.5C 306.505,1053.12 322.338,1047.95 338.5,1044C 339.851,1042.38 341.518,1041.22 343.5,1040.5C 350.892,1039.87 357.559,1037.37 363.5,1033C 362.304,1032.35 362.304,1031.85 363.5,1031.5C 369.512,1032.07 374.846,1030.23 379.5,1026C 382.368,1024.62 385.368,1023.78 388.5,1023.5C 388.281,1022.32 388.614,1021.32 389.5,1020.5C 395.087,1017.31 400.754,1014.31 406.5,1011.5C 408.461,1007.99 411.461,1006.66 415.5,1007.5C 417.747,1003.25 421.08,999.92 425.5,997.5C 429.738,990.424 434.572,983.758 440,977.5C 441.667,976.167 443.333,974.833 445,973.5C 446.941,968.95 448.441,964.283 449.5,959.5C 452.47,958.692 454.303,956.692 455,953.5C 460.447,926.607 460.947,899.94 456.5,873.5 Z"/></g>
<g><path style="opacity:1" fill="#d9b9be" d="M 456.5,873.5 C 456.5,873.167 456.5,872.833 456.5,872.5C 480.285,871.676 503.951,872.842 527.5,876C 532.031,876.907 536.364,878.073 540.5,879.5C 512.69,875.359 484.69,873.359 456.5,873.5 Z"/></g>
<g><path style="opacity:1" fill="#cc9eae" d="M 455.5,872.5 C 455.833,872.5 456.167,872.5 456.5,872.5C 456.5,872.833 456.5,873.167 456.5,873.5C 460.947,899.94 460.447,926.607 455,953.5C 454.303,956.692 452.47,958.692 449.5,959.5C 448.441,964.283 446.941,968.95 445,973.5C 443.333,974.833 441.667,976.167 440,977.5C 434.572,983.758 429.738,990.424 425.5,997.5C 421.08,999.92 417.747,1003.25 415.5,1007.5C 411.461,1006.66 408.461,1007.99 406.5,1011.5C 400.754,1014.31 395.087,1017.31 389.5,1020.5C 388.614,1021.32 388.281,1022.32 388.5,1023.5C 385.368,1023.78 382.368,1024.62 379.5,1026C 374.846,1030.23 369.512,1032.07 363.5,1031.5C 362.304,1031.85 362.304,1032.35 363.5,1033C 357.559,1037.37 350.892,1039.87 343.5,1040.5C 341.518,1041.22 339.851,1042.38 338.5,1044C 322.338,1047.95 306.505,1053.12 291,1059.5C 289.187,1058.31 288.354,1056.98 288.5,1055.5C 287.548,1057.05 287.215,1058.71 287.5,1060.5C 286.127,1060.34 284.793,1060.51 283.5,1061C 280.123,1063.3 276.456,1065.13 272.5,1066.5C 266.311,1071.8 259.311,1075.3 251.5,1077C 249.034,1079.26 246.367,1081.26 243.5,1083C 242.207,1083.49 240.873,1083.66 239.5,1083.5C 239.5,1084.83 239.5,1086.17 239.5,1087.5C 234.243,1086.52 229.91,1088.02 226.5,1092C 220.415,1094.54 214.415,1097.37 208.5,1100.5C 207.614,1101.32 207.281,1102.32 207.5,1103.5C 205.473,1103.34 203.473,1103.5 201.5,1104C 199.607,1106.02 197.273,1107.19 194.5,1107.5C 192.271,1103.92 191.271,1099.92 191.5,1095.5C 190.475,1084.67 189.475,1073.84 188.5,1063C 188.672,1051.34 189.006,1039.5 189.5,1027.5C 189.248,1024.41 188.581,1021.41 187.5,1018.5C 188.506,1009.43 189.84,1000.43 191.5,991.5C 192.222,986.043 193.555,980.709 195.5,975.5C 198.498,971.003 200.832,966.169 202.5,961C 203.882,959.067 205.382,957.234 207,955.5C 207.497,952.854 207.664,950.187 207.5,947.5C 208.833,947.5 210.167,947.5 211.5,947.5C 211.5,946.167 211.5,944.833 211.5,943.5C 212.675,943.719 213.675,943.386 214.5,942.5C 220.646,934.853 226.979,927.353 233.5,920C 235.167,919.167 236.833,918.333 238.5,917.5C 248.114,908.857 259.114,902.523 271.5,898.5C 271.5,897.5 271.5,896.5 271.5,895.5C 277.805,895.067 283.805,893.4 289.5,890.5C 302.734,887.694 316.068,885.194 329.5,883C 331.889,882.261 333.889,881.095 335.5,879.5C 356.803,877.595 378.137,875.761 399.5,874C 418.164,873.333 436.831,872.833 455.5,872.5 Z"/></g>
<g><path style="opacity:1" fill="#c8aec0" d="M 335.5,879.5 C 333.889,881.095 331.889,882.261 329.5,883C 316.068,885.194 302.734,887.694 289.5,890.5C 294.674,887.213 300.341,884.88 306.5,883.5C 316.253,882.413 325.92,881.079 335.5,879.5 Z"/></g>
<g><path style="opacity:1" fill="#ad8c92" d="M 553.5,-0.5 C 553.833,-0.5 554.167,-0.5 554.5,-0.5C 554.5,399.5 554.5,799.5 554.5,1199.5C 553.5,1199.5 552.5,1199.5 551.5,1199.5C 550.895,1093.47 551.562,987.471 553.5,881.5C 553.5,792.167 553.5,702.833 553.5,613.5C 553.5,443.5 553.5,273.5 553.5,103.5C 553.5,68.8333 553.5,34.1667 553.5,-0.5 Z"/></g>
<g><path style="opacity:1" fill="#c9a0b2" d="M 191.5,991.5 C 189.84,1000.43 188.506,1009.43 187.5,1018.5C 188.581,1021.41 189.248,1024.41 189.5,1027.5C 189.006,1039.5 188.672,1051.34 188.5,1063C 189.475,1073.84 190.475,1084.67 191.5,1095.5C 189.189,1087.77 187.523,1079.77 186.5,1071.5C 186.167,1063.5 185.833,1055.5 185.5,1047.5C 185.093,1029.35 186.426,1011.35 189.5,993.5C 189.747,992.287 190.414,991.62 191.5,991.5 Z"/></g>
<g><path style="opacity:1" fill="#eee5e8" d="M 194.5,1109.5 C 195.799,1117.63 197.632,1125.63 200,1133.5C 206.16,1150.14 212.993,1166.48 220.5,1182.5C 221.325,1183.39 222.325,1183.72 223.5,1183.5C 223.343,1184.87 223.51,1186.21 224,1187.5C 226.72,1191.38 229.22,1195.38 231.5,1199.5C 154.167,1199.5 76.8333,1199.5 -0.5,1199.5C -0.5,1178.17 -0.5,1156.83 -0.5,1135.5C 3.71296,1135.68 7.71296,1136.68 11.5,1138.5C 58.445,1146.44 104.445,1142.94 149.5,1128C 157.794,1123.85 166.461,1121.01 175.5,1119.5C 175.281,1118.32 175.614,1117.32 176.5,1116.5C 181.137,1114.91 185.47,1112.74 189.5,1110C 191.134,1109.51 192.801,1109.34 194.5,1109.5 Z"/></g>
</svg>
