<svg width="16" height="16" viewBox="0 0 16 16" fill="none" xmlns="http://www.w3.org/2000/svg">
<g clip-path="url(#clip0_772_578)">
<path d="M13.1846 15.9125C13.0627 15.85 12.9908 15.7844 12.9221 15.6719L12.8283 15.5219L12.8127 10.0969L12.7971 4.67189L12.7127 4.50939C12.5971 4.29064 12.4346 4.13439 12.2221 4.03439L12.0471 3.95314L8.09395 3.94377L4.14082 3.93752L4.89707 4.69377C5.30957 5.11252 5.6752 5.50314 5.70645 5.56252C5.79707 5.73752 5.78457 6.01252 5.67832 6.19377C5.5252 6.45627 5.1752 6.59064 4.8877 6.50002C4.79082 6.46877 4.48145 6.17814 3.36582 5.06564C2.59395 4.30002 1.9377 3.61877 1.90332 3.55627C1.8252 3.40002 1.8252 3.13127 1.90332 2.97502C1.9377 2.91252 2.59395 2.23127 3.36582 1.46252C4.85645 -0.0218571 4.82832 1.79303e-05 5.12832 1.79303e-05C5.49707 1.79303e-05 5.84395 0.425018 5.76582 0.787518C5.71895 0.996893 5.6127 1.12502 4.89395 1.84377L4.15645 2.57814L8.20957 2.59377L12.2658 2.60939L12.4846 2.68127C13.3002 2.95627 13.8939 3.57502 14.0939 4.36252C14.1564 4.59689 14.1564 4.73439 14.1564 10.0531C14.1564 15.3844 14.1564 15.5063 14.0971 15.6219C13.9189 15.9688 13.5283 16.0938 13.1846 15.9125Z" fill="black"/>
</g>
<defs>
<clipPath id="clip0_772_578">
<rect width="16" height="16" fill="white" transform="matrix(1 0 0 -1 0 16)"/>
</clipPath>
</defs>
</svg>
