<svg width="38" height="38" viewBox="0 0 38 38" fill="none" xmlns="http://www.w3.org/2000/svg">
<path fill-rule="evenodd" clip-rule="evenodd" d="M16.8853 4.41667C9.98174 4.41667 4.3853 10.0131 4.3853 16.9167C4.3853 23.8202 9.98174 29.4167 16.8853 29.4167C23.7888 29.4167 29.3853 23.8202 29.3853 16.9167C29.3853 10.0131 23.7888 4.41667 16.8853 4.41667ZM0.218632 16.9167C0.218632 7.71192 7.68055 0.25 16.8853 0.25C26.0901 0.25 33.552 7.71192 33.552 16.9167C33.552 20.7681 32.2455 24.3146 30.0518 27.1367L37.1084 34.1935C37.922 35.0071 37.922 36.3262 37.1084 37.1398C36.2949 37.9533 34.9757 37.9533 34.1622 37.1398L27.1053 30.0831C24.2832 32.2769 20.7368 33.5833 16.8853 33.5833C7.68055 33.5833 0.218632 26.1215 0.218632 16.9167Z" fill="black"/>
</svg>
