<svg width="40" height="40" viewBox="0 0 40 40" fill="none" xmlns="http://www.w3.org/2000/svg">
<path d="M18.9058 2.9375C17.1792 3.13281 16.9449 3.1875 16.6636 3.45312C16.5699 3.53906 16.0933 4.22656 15.6089 4.98438C14.8745 6.125 14.6792 6.36719 14.4527 6.46094C14.3042 6.52344 13.8277 6.75781 13.398 6.96875L12.6167 7.36719L10.9214 7.20313C9.64799 7.07813 9.1558 7.0625 8.93705 7.125C8.31205 7.29688 6.21049 9.6875 5.19486 11.3672C4.5933 12.3594 4.5933 12.3203 5.23392 14.2578L5.78861 15.9219L5.5933 16.6484C5.49174 17.0547 5.38236 17.5547 5.3433 17.7734C5.28861 18.1406 5.22611 18.2266 4.10892 19.3984C3.46049 20.0781 2.89017 20.7109 2.83549 20.8047C2.63236 21.1641 2.77299 22.8281 3.14017 24.4141C3.31986 25.1953 3.83549 26.7422 4.06205 27.1875C4.26517 27.5859 4.48392 27.6953 6.19486 28.3203L7.67142 28.8594L8.0308 29.3281C8.22611 29.5938 8.56205 30.0078 8.77299 30.2578L9.1558 30.7031L9.37455 32.3828C9.5308 33.5625 9.64017 34.1406 9.74174 34.3203C10.1636 35.0625 14.2027 37.1094 15.5074 37.2422C15.9839 37.2891 16.062 37.2578 17.773 36.2109L18.9839 35.4688H20.1949H21.398L22.8277 36.3359C23.7495 36.9063 24.3511 37.2188 24.5464 37.25C25.5855 37.3828 30.1402 35.1953 30.648 34.3203C30.7417 34.1484 30.8511 33.5703 30.9917 32.4219C31.1949 30.7891 31.2027 30.7578 31.4605 30.4375C31.6089 30.2656 31.9371 29.8359 32.1949 29.4922L32.6714 28.8672L34.273 28.2891C35.4449 27.8672 35.9292 27.6484 36.0933 27.4844C36.6324 26.9453 37.4761 23.9141 37.6324 21.9844C37.7105 20.9062 37.7183 20.9297 36.3433 19.4766C35.2886 18.375 35.1089 18.1406 35.0542 17.8672C35.023 17.6875 34.9058 17.1797 34.7964 16.7344L34.6011 15.9297L35.1089 14.3906C35.6871 12.6641 35.7261 12.375 35.4292 11.8047C34.6089 10.1797 32.1636 7.32813 31.4058 7.10938C31.2496 7.0625 30.5933 7.09375 29.4683 7.20313L27.773 7.35938L26.7183 6.84375L25.6636 6.33594L24.687 4.86719C23.5855 3.21094 23.562 3.19531 22.5386 3.04688C21.898 2.95312 19.398 2.88281 18.9058 2.9375ZM22.0386 5.50781C22.1011 5.53125 22.5542 6.16406 23.0386 6.91406C23.523 7.65625 23.9995 8.32031 24.0933 8.38281C24.187 8.44531 24.5777 8.625 24.9683 8.78906C25.3511 8.94531 25.9605 9.24219 26.3277 9.44531C26.6949 9.64844 27.0855 9.84375 27.1949 9.86719C27.3121 9.89844 28.1167 9.85156 28.9917 9.76563L30.5777 9.60938L30.9996 10.0234C31.523 10.5313 32.1949 11.3594 32.6714 12.0781L33.0386 12.6328L32.5386 14.1484C32.2574 14.9844 32.0308 15.7734 32.0308 15.9063C32.0308 16.0391 32.1167 16.4375 32.2261 16.8047C32.3355 17.1641 32.4996 17.8672 32.5855 18.3594C32.6792 18.8516 32.773 19.3047 32.8042 19.3594C32.8355 19.4141 33.3746 20 34.0074 20.6563L35.148 21.8594L35.0386 22.6094C34.9136 23.4219 34.6949 24.3672 34.4449 25.1328L34.2886 25.6094L32.7808 26.1719C31.9527 26.4766 31.2027 26.7813 31.1089 26.8438C31.023 26.8984 30.7574 27.2344 30.5152 27.5781C30.273 27.9141 29.8199 28.5 29.4917 28.8672C29.1324 29.2813 28.8824 29.6484 28.8355 29.8281C28.7964 29.9844 28.6792 30.7578 28.5855 31.5469L28.4136 32.9766L27.9761 33.25C27.4058 33.6094 26.2027 34.1875 25.4761 34.4531L24.898 34.6641L23.4917 33.8203C22.7183 33.3516 22.0386 32.9688 21.9839 32.9609C21.9214 32.9609 21.1167 32.9531 20.1949 32.9531C19.273 32.9531 18.4683 32.9609 18.4058 32.9609C18.3433 32.9688 17.6636 33.3516 16.8824 33.8203L15.4761 34.6797L14.9058 34.4531C13.6714 33.9766 12.0542 33.1328 11.9917 32.9375C11.9683 32.8906 11.8667 32.1484 11.7574 31.2969C11.648 30.4375 11.5152 29.6641 11.4683 29.5781C11.4214 29.4844 11.148 29.1484 10.8589 28.8281C10.5699 28.5078 10.1167 27.9375 9.85111 27.5625C9.58549 27.1797 9.27299 26.8281 9.1558 26.7656C9.03861 26.7109 8.36674 26.4453 7.6558 26.1875C6.94486 25.9297 6.30424 25.6953 6.23392 25.6641C5.99955 25.5703 5.51517 23.8594 5.31205 22.4219L5.23392 21.8594L6.35111 20.6719C6.9683 20.0234 7.51517 19.4141 7.56986 19.3203C7.61674 19.2266 7.72611 18.75 7.81205 18.2656C7.89799 17.7813 8.05424 17.1016 8.16361 16.7578C8.26517 16.4141 8.35892 16.0469 8.35892 15.9375C8.35892 15.8281 8.12455 15.0469 7.8433 14.1953L7.32767 12.6484L7.61674 12.2031C7.98392 11.6484 8.77299 10.6484 9.31205 10.0547L9.72611 9.59375L11.4058 9.76563L13.0855 9.9375L13.9995 9.46094C14.4995 9.20313 15.1792 8.88281 15.4995 8.75C15.8277 8.625 16.1636 8.47656 16.2495 8.42188C16.3433 8.36719 16.8199 7.69531 17.3199 6.92969C17.9214 6.01563 18.2808 5.53125 18.3902 5.50781C18.8902 5.39844 21.7495 5.39844 22.0386 5.50781Z" fill="black"/>
<path d="M18.8197 13.7812C16.3978 14.2891 14.3431 16.2109 13.6713 18.6094C13.4603 19.3516 13.3822 20.6719 13.5072 21.4453C14.1713 25.5312 18.2338 28.0703 22.1869 26.8594C25.1244 25.9609 27.0931 23.1406 26.9291 20.0781C26.7728 17.1562 24.8275 14.7187 22.015 13.8984C21.2806 13.6875 19.5853 13.625 18.8197 13.7812ZM21.2416 16.2891C22.8041 16.7031 23.9603 17.8984 24.3353 19.4766C24.8744 21.75 23.3666 24.0781 21.0541 24.5703C20.3666 24.7109 20.0228 24.7109 19.3353 24.5703C17.7416 24.2344 16.4213 22.9531 16.0541 21.3906C15.5306 19.1641 16.89 16.8984 19.1088 16.2891C19.6244 16.1484 20.7181 16.1484 21.2416 16.2891Z" fill="black"/>
</svg>
