<svg width="78" height="54" viewBox="0 0 78 54" fill="none" xmlns="http://www.w3.org/2000/svg">
<mask id="mask0_701_4" style="mask-type:luminance" maskUnits="userSpaceOnUse" x="14" y="0" width="54" height="54">
<path d="M49.5352 0.7229H32.3593C22.4794 0.7229 14.4702 8.73234 14.4702 18.6125V35.9668C14.4702 45.8469 22.4794 53.8563 32.3593 53.8563H49.5352C59.4151 53.8563 67.4243 45.8469 67.4243 35.9668V18.6125C67.4243 8.73234 59.4151 0.7229 49.5352 0.7229Z" fill="white"/>
</mask>
<g mask="url(#mask0_701_4)">
<path d="M49.6631 0.723389H14.4678V8.36012H49.6631V0.723389Z" fill="#D6A795"/>
<path d="M49.6631 9.59912H14.4678V17.2358H49.6631V9.59912Z" fill="#D6A795"/>
<path d="M67.3662 35.919V0.723633H59.7295V35.919H67.3662Z" fill="#FAF0A9"/>
<path d="M58.4902 35.919V0.723633H50.8535V35.919H58.4902Z" fill="#FAF0A9"/>
<path d="M67.4244 37.3452H32.229V44.9819H67.4244V37.3452Z" fill="#DAC596"/>
<path d="M67.4244 46.2209H32.229V53.8577H67.4244V46.2209Z" fill="#DAC596"/>
<path d="M30.9805 53.8155V18.6201H23.3437V53.8155H30.9805Z" fill="#EBD1AE"/>
<path d="M22.105 53.8155V18.6201H14.4683V53.8155H22.105Z" fill="#EBD1AE"/>
</g>
<mask id="mask1_701_4" style="mask-type:luminance" maskUnits="userSpaceOnUse" x="0" y="18" width="78" height="19">
<path d="M10.4272 19.8727V22.0456C9.62336 21.6412 8.86494 21.3397 8.15196 21.1411C7.43898 20.9426 6.75046 20.8433 6.0864 20.8433C4.93305 20.8433 4.04182 21.0786 3.41271 21.5493C2.7906 22.0199 2.47954 22.689 2.47954 23.5567C2.47954 24.2847 2.68575 24.8362 3.09816 25.2112C3.51756 25.5789 4.30744 25.8767 5.46778 26.1046L6.74696 26.3804C8.32671 26.6966 9.49055 27.2554 10.2385 28.0569C10.9934 28.8511 11.3709 29.9173 11.3709 31.2556C11.3709 32.8513 10.8606 34.0609 9.84005 34.8845C8.8265 35.708 7.33762 36.1198 5.37342 36.1198C4.63247 36.1198 3.8426 36.0316 3.00379 35.8551C2.17198 35.6786 1.30871 35.4176 0.413985 35.072V32.7778C1.27376 33.2851 2.11606 33.6675 2.94088 33.9249C3.76571 34.1822 4.57655 34.3109 5.37342 34.3109C6.58269 34.3109 7.51587 34.0609 8.17293 33.5609C8.82999 33.0609 9.15852 32.3476 9.15852 31.4211C9.15852 30.6122 8.92086 29.9798 8.44554 29.5239C7.97721 29.068 7.20481 28.7261 6.12834 28.4981L4.83868 28.2334C3.25893 27.9025 2.11606 27.3841 1.41007 26.6782C0.704071 25.9723 0.351074 24.9906 0.351074 23.7332C0.351074 22.2772 0.836882 21.1301 1.8085 20.2918C2.7871 19.4536 4.13269 19.0344 5.84525 19.0344C6.5792 19.0344 7.32713 19.1043 8.08905 19.244C8.85096 19.3837 9.63035 19.5933 10.4272 19.8727Z" fill="white"/>
<path d="M14.5166 18.6375H16.4563V28.774L22.2126 23.4465H24.6766L18.4485 29.2262L24.9388 35.8001H22.4223L16.4563 29.7667V35.8001H14.5166V18.6375Z" fill="white"/>
<path d="M33.8299 25.3436C33.6132 25.2113 33.3755 25.1157 33.1169 25.0569C32.8652 24.9907 32.5856 24.9576 32.2781 24.9576C31.1876 24.9576 30.3488 25.3326 29.7617 26.0826C29.1815 26.8253 28.8914 27.8952 28.8914 29.2924V35.8H26.9517V23.4465H28.8914V25.3657C29.2968 24.6157 29.8246 24.0605 30.4746 23.7002C31.1247 23.3325 31.9146 23.1487 32.8443 23.1487C32.9771 23.1487 33.1239 23.1597 33.2846 23.1818C33.4454 23.1965 33.6237 23.2222 33.8194 23.259L33.8299 25.3436Z" fill="white"/>
<path d="M35.8535 23.4465H37.7828V35.8001H35.8535V23.4465ZM35.8535 18.6375H37.7828V21.2074H35.8535V18.6375Z" fill="white"/>
<path d="M47.7644 18.6375V20.325H45.9191C45.227 20.325 44.7447 20.4721 44.4721 20.7662C44.2065 21.0604 44.0737 21.5898 44.0737 22.3545V23.4465H47.2507V25.0238H44.0737V35.8001H42.1339V25.0238H40.2886V23.4465H42.1339V22.5862C42.1339 21.2111 42.438 20.2111 43.0461 19.586C43.6543 18.9536 44.6189 18.6375 45.94 18.6375H47.7644Z" fill="white"/>
<path d="M50.9099 19.939V23.4465H54.8837V25.0238H50.9099V31.73C50.9099 32.7374 51.0392 33.3845 51.2979 33.6713C51.5635 33.958 52.0982 34.1014 52.9021 34.1014H54.8837V35.8H52.9021C51.4132 35.8 50.3856 35.5096 49.8195 34.9287C49.2533 34.3404 48.9702 33.2742 48.9702 31.73V25.0238H47.5547V23.4465H48.9702V19.939H50.9099Z" fill="white"/>
<path d="M67.466 29.1159V30.1086H58.5956C58.6795 31.5057 59.078 32.5719 59.791 33.3073C60.5109 34.0353 61.5105 34.3992 62.7897 34.3992C63.5306 34.3992 64.2471 34.3037 64.9391 34.1125C65.6381 33.9213 66.3301 33.6345 67.0152 33.2521V35.1713C66.3231 35.4802 65.6137 35.7155 64.8867 35.8773C64.1597 36.039 63.4223 36.1199 62.6743 36.1199C60.801 36.1199 59.3156 35.5464 58.2182 34.3992C57.1277 33.2521 56.5825 31.7006 56.5825 29.7446C56.5825 27.7224 57.0998 26.1194 58.1343 24.9355C59.1758 23.7443 60.5773 23.1487 62.3388 23.1487C63.9186 23.1487 65.1663 23.6855 66.082 24.7591C67.0047 25.8253 67.466 27.2776 67.466 29.1159ZM65.5368 28.5203C65.5228 27.4099 65.2257 26.5239 64.6455 25.8621C64.0723 25.2003 63.3104 24.8694 62.3598 24.8694C61.2833 24.8694 60.4201 25.1892 59.77 25.829C59.1269 26.4687 58.7564 27.3695 58.6586 28.5313L65.5368 28.5203Z" fill="white"/>
<path d="M77.4373 25.3436C77.2206 25.2113 76.9829 25.1157 76.7243 25.0569C76.4727 24.9907 76.1931 24.9576 75.8855 24.9576C74.795 24.9576 73.9562 25.3326 73.3691 26.0826C72.7889 26.8253 72.4988 27.8952 72.4988 29.2924V35.8H70.5591V23.4465H72.4988V25.3657C72.9042 24.6157 73.432 24.0605 74.0821 23.7002C74.7321 23.3325 75.522 23.1487 76.4517 23.1487C76.5845 23.1487 76.7313 23.1597 76.8921 23.1818C77.0528 23.1965 77.2311 23.2222 77.4268 23.259L77.4373 25.3436Z" fill="white"/>
</mask>
<g mask="url(#mask1_701_4)">
<path d="M10.4272 19.8727V22.0456C9.62336 21.6412 8.86494 21.3397 8.15196 21.1411C7.43898 20.9426 6.75046 20.8433 6.0864 20.8433C4.93305 20.8433 4.04182 21.0786 3.41271 21.5493C2.7906 22.0199 2.47954 22.689 2.47954 23.5567C2.47954 24.2847 2.68575 24.8362 3.09816 25.2112C3.51756 25.5789 4.30744 25.8767 5.46778 26.1046L6.74696 26.3804C8.32671 26.6966 9.49055 27.2554 10.2385 28.0569C10.9934 28.8511 11.3709 29.9173 11.3709 31.2556C11.3709 32.8513 10.8606 34.0609 9.84005 34.8845C8.8265 35.708 7.33762 36.1198 5.37342 36.1198C4.63247 36.1198 3.8426 36.0316 3.00379 35.8551C2.17198 35.6786 1.30871 35.4176 0.413985 35.072V32.7778C1.27376 33.2851 2.11606 33.6675 2.94088 33.9249C3.76571 34.1822 4.57655 34.3109 5.37342 34.3109C6.58269 34.3109 7.51587 34.0609 8.17293 33.5609C8.82999 33.0609 9.15852 32.3476 9.15852 31.4211C9.15852 30.6122 8.92086 29.9798 8.44554 29.5239C7.97721 29.068 7.20481 28.7261 6.12834 28.4981L4.83868 28.2334C3.25893 27.9025 2.11606 27.3841 1.41007 26.6782C0.704071 25.9723 0.351074 24.9906 0.351074 23.7332C0.351074 22.2772 0.836882 21.1301 1.8085 20.2918C2.7871 19.4536 4.13269 19.0344 5.84525 19.0344C6.5792 19.0344 7.32713 19.1043 8.08905 19.244C8.85096 19.3837 9.63035 19.5933 10.4272 19.8727Z" fill="black"/>
<path d="M14.5166 18.6375H16.4563V28.774L22.2126 23.4465H24.6766L18.4485 29.2262L24.9388 35.8001H22.4223L16.4563 29.7667V35.8001H14.5166V18.6375Z" fill="black"/>
<path d="M33.8299 25.3436C33.6132 25.2113 33.3755 25.1157 33.1169 25.0569C32.8652 24.9907 32.5856 24.9576 32.2781 24.9576C31.1876 24.9576 30.3488 25.3326 29.7617 26.0826C29.1815 26.8253 28.8914 27.8952 28.8914 29.2924V35.8H26.9517V23.4465H28.8914V25.3657C29.2968 24.6157 29.8246 24.0605 30.4746 23.7002C31.1247 23.3325 31.9146 23.1487 32.8443 23.1487C32.9771 23.1487 33.1239 23.1597 33.2846 23.1818C33.4454 23.1965 33.6237 23.2222 33.8194 23.259L33.8299 25.3436Z" fill="black"/>
<path d="M35.8535 23.4465H37.7828V35.8001H35.8535V23.4465ZM35.8535 18.6375H37.7828V21.2074H35.8535V18.6375Z" fill="black"/>
<path d="M47.7644 18.6375V20.325H45.9191C45.227 20.325 44.7447 20.4721 44.4721 20.7662C44.2065 21.0604 44.0737 21.5898 44.0737 22.3545V23.4465H47.2507V25.0238H44.0737V35.8001H42.1339V25.0238H40.2886V23.4465H42.1339V22.5862C42.1339 21.2111 42.438 20.2111 43.0461 19.586C43.6543 18.9536 44.6189 18.6375 45.94 18.6375H47.7644Z" fill="black"/>
<path d="M50.9099 19.939V23.4465H54.8837V25.0238H50.9099V31.73C50.9099 32.7374 51.0392 33.3845 51.2979 33.6713C51.5635 33.958 52.0982 34.1014 52.9021 34.1014H54.8837V35.8H52.9021C51.4132 35.8 50.3856 35.5096 49.8195 34.9287C49.2533 34.3404 48.9702 33.2742 48.9702 31.73V25.0238H47.5547V23.4465H48.9702V19.939H50.9099Z" fill="black"/>
<path d="M67.466 29.1159V30.1086H58.5956C58.6795 31.5057 59.078 32.5719 59.791 33.3073C60.5109 34.0353 61.5105 34.3992 62.7897 34.3992C63.5306 34.3992 64.2471 34.3037 64.9391 34.1125C65.6381 33.9213 66.3301 33.6345 67.0152 33.2521V35.1713C66.3231 35.4802 65.6137 35.7155 64.8867 35.8773C64.1597 36.039 63.4223 36.1199 62.6743 36.1199C60.801 36.1199 59.3156 35.5464 58.2182 34.3992C57.1277 33.2521 56.5825 31.7006 56.5825 29.7446C56.5825 27.7224 57.0998 26.1194 58.1343 24.9355C59.1758 23.7443 60.5773 23.1487 62.3388 23.1487C63.9186 23.1487 65.1663 23.6855 66.082 24.7591C67.0047 25.8253 67.466 27.2776 67.466 29.1159ZM65.5368 28.5203C65.5228 27.4099 65.2257 26.5239 64.6455 25.8621C64.0723 25.2003 63.3104 24.8694 62.3598 24.8694C61.2833 24.8694 60.4201 25.1892 59.77 25.829C59.1269 26.4687 58.7564 27.3695 58.6586 28.5313L65.5368 28.5203Z" fill="black"/>
<path d="M77.4373 25.3436C77.2206 25.2113 76.9829 25.1157 76.7243 25.0569C76.4727 24.9907 76.1931 24.9576 75.8855 24.9576C74.795 24.9576 73.9562 25.3326 73.3691 26.0826C72.7889 26.8253 72.4988 27.8952 72.4988 29.2924V35.8H70.5591V23.4465H72.4988V25.3657C72.9042 24.6157 73.432 24.0605 74.0821 23.7002C74.7321 23.3325 75.522 23.1487 76.4517 23.1487C76.5845 23.1487 76.7313 23.1597 76.8921 23.1818C77.0528 23.1965 77.2311 23.2222 77.4268 23.259L77.4373 25.3436Z" fill="black"/>
</g>
</svg>
