<svg width="32" height="32" viewBox="0 0 32 32" fill="none" xmlns="http://www.w3.org/2000/svg">
<mask id="mask0_703_1017" style="mask-type:luminance" maskUnits="userSpaceOnUse" x="0" y="0" width="32" height="32">
<path d="M21.1897 0H10.8103C4.83996 0 0 4.82374 0 10.7741V21.2259C0 27.1763 4.83996 32 10.8103 32H21.1897C27.16 32 32 27.1763 32 21.2259V10.7741C32 4.82374 27.16 0 21.1897 0Z" fill="white"/>
</mask>
<g mask="url(#mask0_703_1017)">
<path d="M21.267 0.000244141H-0.00146484V4.59952H21.267V0.000244141Z" fill="#D6A795"/>
<path d="M21.267 5.34595H-0.00146484V9.94522H21.267V5.34595Z" fill="#D6A795"/>
<path d="M31.9644 21.197V0.000366211H27.3495V21.197H31.9644Z" fill="#FAF0A9"/>
<path d="M26.6006 21.197V0.000366211H21.9857V21.197H26.6006Z" fill="#FAF0A9"/>
<path d="M31.9999 22.0563H10.7314V26.6555H31.9999V22.0563Z" fill="#DAC596"/>
<path d="M31.9999 27.4017H10.7314V32.001H31.9999V27.4017Z" fill="#DAC596"/>
<path d="M9.97705 31.9756V10.7789H5.3622V31.9756H9.97705Z" fill="#EBD1AE"/>
<path d="M4.61279 31.9756V10.7789H-0.00206184V31.9756H4.61279Z" fill="#EBD1AE"/>
</g>
</svg>
